<svg xlink: href="data:image/png;base64" xmlns="http://www.w3.org/2000/svg" xmlns:xlink="http://www.w3.org/1999/xlink" width="1262" height="820" viewBox="0 0 1262 820">
  <defs>
    <clipPath id="clip-path">
      <rect id="Rectangle_3" data-name="Rectangle 3" width="1262" height="820" transform="translate(8519 -1037)" fill="#fff" stroke="#707070" stroke-width="1"/>
    </clipPath>
    <clipPath id="clip-path-2">
      <rect id="Rectangle_2" data-name="Rectangle 2" width="1308" height="1072" transform="translate(8138.024 -680.21)" fill="#fff" stroke="#707070" stroke-width="1"/>
    </clipPath>
  </defs>
  <g id="Mask_Group_2" data-name="Mask Group 2" transform="translate(-8519 1037)" clip-path="url(#clip-path)">
    <g id="Mask_Group_1" data-name="Mask Group 1" transform="translate(342.976 -365.79)" clip-path="url(#clip-path-2)">
      <g id="Group_3" data-name="Group 3" transform="translate(8169.619 -781.827)">
        <g id="Group_2" data-name="Group 2" transform="translate(0)">
          <g id="cool-background">
            <path id="Path_3" data-name="Path 3" d="M745.09,64.422Q677.026,185.29,770.829,215.979c93.8,30.689,316.847,42.964,410.079,109.537s377.5,15.107,426.113-99.15S1743.171-64,1281.6-64q-461.58,0-536.5,128.422Z" transform="translate(-76.064 136.062)" fill="#fffa72"/>
            <path id="Path_4" data-name="Path 4" d="M312.83,240.38q46.126,338.431,368.875,424.36c322.749,85.929,971.311,120.3,1362.735,306.7s1086.576,42.3,998.943-277.621S2855.959-119.2,1563.549-119.2q-1292.424,0-1250.714,359.58Z" transform="translate(-311.531 119.2)" fill="#d6f2ff"/>
            <path id="Path_5" data-name="Path 5" d="M344.094,225.717q21.622,320.3,321.486,401.626C965.444,708.669,1577.024,741.2,1935.343,917.615s1025.613,40.033,963.5-262.748S2774.394-114.6,1551.22-114.6Q328.033-114.6,344.1,225.717Z" transform="translate(-292.715 120.605)" fill="#c7e1f3"/>
            <path id="Path_6" data-name="Path 6" d="M376.487,211.054q.536,302.17,278.384,378.893c277.848,76.722,852.793,107.411,1179.89,273.842s965.077,37.767,925.258-247.876S2690.326-110,1536.389-110q-1153.949,0-1159.9,321.054Z" transform="translate(-273.76 122.01)" fill="#b8cfe6"/>
            <path id="Path_7" data-name="Path 7" d="M410.1,196.391Q392.675,480.431,649.3,552.55c256.625,72.119,795.254,100.966,1092.851,257.411s904.931,35.5,884.448-233S2604.152-105.4,1519.451-105.4Q434.738-105.4,410.1,196.391Z" transform="translate(-254.86 123.415)" fill="#a9beda"/>
            <path id="Path_8" data-name="Path 8" d="M445.015,181.727q-32.5,265.91,203.641,333.425c236.135,67.516,738.74,94.521,1008.427,240.981S2502.23,789.369,2498.353,538s17.867-638.8-997.6-638.8Q485.28-100.8,445.019,181.727Z" transform="translate(-236.197 124.821)" fill="#9aadce"/>
            <path id="Path_9" data-name="Path 9" d="M480.915,167.064q-44.889,247.78,171.437,310.692c216.326,62.912,683.177,88.077,926.431,224.55s785.7,30.969,795.9-203.258S2426.425-96.2,1480.2-96.2q-946.239,0-999.277,263.264Z" transform="translate(-217.522 126.226)" fill="#8b9bc1"/>
            <path id="Path_10" data-name="Path 10" d="M517.555,152.4Q462.777,382.05,659.93,440.359c197.153,58.309,628.506,81.632,846.705,208.12s726.561,28.7,748.465-188.386S2334.706-91.6,1457.714-91.6q-877,0-940.156,244Z" transform="translate(-198.656 127.631)" fill="#7d8ab5"/>
            <path id="Path_11" data-name="Path 11" d="M554.753,137.738q-62.3,211.519,116.275,265.225c178.579,53.706,574.675,75.188,769.12,191.689s667.72,26.437,699.1-173.513S2241.036-87,1433.28-87Q625.515-87,554.755,137.738Z" transform="translate(-179.471 129.036)" fill="#6e79a9"/>
            <path id="Path_12" data-name="Path 12" d="M592.367,123.074q-67.594,193.389,92.98,242.491c160.573,49.1,521.639,68.743,693.562,175.259S1988.066,565,2026.8,382.184,2145.406-82.4,1406.886-82.4q-738.528,0-814.516,205.474Z" transform="translate(-159.872 130.441)" fill="#5f679c"/>
            <path id="Path_13" data-name="Path 13" d="M630.288,108.411Q559.547,283.67,702.658,328.169c143.111,44.5,469.364,62.3,619.946,158.828s550.864,21.9,594.935-143.768S2047.806-77.8,1378.522-77.8q-669.29,0-748.232,186.211Z" transform="translate(-139.785 131.846)" fill="#505690"/>
            <path id="Path_14" data-name="Path 14" d="M668.427,93.748Q596.6,250.877,722.771,290.772c126.172,39.9,417.821,55.854,548.2,142.4s492.827,19.639,540.286-128.9S1948.237-73.2,1348.19-73.2q-600.054,0-679.761,166.948Z" transform="translate(-119.152 133.252)" fill="#414584"/>
            <path id="Path_15" data-name="Path 15" d="M706.715,79.085q-70.922,139,38.818,174.291c109.74,35.292,366.987,49.409,478.253,125.967s435.04,17.373,484-114.023S1846.7-68.6,1315.885-68.6q-530.817,0-609.169,147.685Z" transform="translate(-97.926 134.657)" fill="#323377"/>
          </g>
        </g>
      </g>
    </g>
  </g>
</svg>
